<svg width="30" height="30" viewBox="0 0 30 30" fill="none" xmlns="http://www.w3.org/2000/svg">
<path d="M7.72119 8.23291C8.38377 8.71389 8.81782 9.49355 8.82455 10.3738L8.84905 11.2314L16.0974 3.81855C16.6074 3.30641 16.6858 2.48239 16.2383 1.91459C15.9559 1.55645 15.5442 1.37742 15.1323 1.37732C14.7716 1.37732 14.411 1.51483 14.1373 1.78954L7.72119 8.23291Z" fill="white"/>
<path d="M1.76979 20.1684L2.23865 19.621L3.51596 10.2944C3.5615 9.06591 4.43874 8.04787 5.59732 7.79133L5.56009 6.48242C5.56009 5.71289 4.93305 5.08331 4.16677 5.08331C3.40048 5.08331 2.77355 5.71289 2.77355 6.48242L1.43577 16.2502C1.43566 16.2512 1.43513 16.2523 1.4345 16.2529L0.142886 17.7609C-0.0588339 17.9964 -0.0454771 18.3483 0.173491 18.5677L1.76979 20.1684Z" fill="white"/>
<path d="M17.7534 4.09441C18.3325 4.2314 18.8517 4.55934 19.2308 5.04021C19.4834 5.36076 19.6498 5.7245 19.7338 6.10303L20.4861 5.34766C20.9961 4.83542 21.0745 4.0115 20.6269 3.4436C20.3447 3.08545 19.9328 2.90643 19.521 2.90643C19.1603 2.90643 18.7997 3.04384 18.5259 3.31855L17.7534 4.09441Z" fill="white"/>
<path d="M26.6445 4.64225C26.7705 4.64225 26.8977 4.60444 27.0085 4.52565L28.5844 3.4058C28.8689 3.20375 28.9363 2.80822 28.735 2.52252C28.5338 2.23683 28.1399 2.16903 27.8554 2.37128L26.2795 3.49114C25.995 3.69318 25.9276 4.08872 26.1289 4.37441C26.2519 4.54899 26.4466 4.64225 26.6445 4.64225Z" fill="white"/>
<path d="M24.4091 3.04173C24.4822 3.0694 24.5573 3.0825 24.6311 3.0825C24.8864 3.0825 25.1267 2.92576 25.2218 2.67154L25.9012 0.856833C26.0238 0.529315 25.8588 0.163881 25.5326 0.0407318C25.2063 -0.0825231 24.8426 0.083401 24.7199 0.410919L24.0405 2.22563C23.9179 2.55314 24.083 2.91858 24.4091 3.04173Z" fill="white"/>
<path d="M29.369 5.81133C29.3647 5.81133 29.3604 5.81133 29.356 5.81133L27.426 5.82759C27.0775 5.83467 26.8008 6.10283 26.8079 6.45263C26.8148 6.7981 27.0959 7.07872 27.4386 7.07872C27.4429 7.07872 27.4472 7.07872 27.4516 7.07872L29.3816 7.04567C29.7301 7.03848 30.0068 6.75712 29.9997 6.40721C29.9928 6.06174 29.7117 5.81133 29.369 5.81133Z" fill="white"/>
<path d="M25.0266 18.5835C25.6126 17.995 25.5713 17.0055 24.9022 16.4736C24.6517 16.2744 24.351 16.179 24.0497 16.179C23.6705 16.179 23.2902 16.3298 23.0062 16.6151L19.8537 19.7809C19.7269 19.9082 19.5605 19.972 19.3941 19.972C19.2278 19.972 19.0615 19.9082 18.9345 19.7809L18.9263 19.7725C18.6516 19.4968 18.6516 19.0494 18.9263 18.7736L24.0113 13.667C24.5214 13.1549 24.5998 12.3309 24.1522 11.763C23.8699 11.4048 23.4581 11.2258 23.0463 11.2258C22.6856 11.2258 22.325 11.3632 22.0512 11.638L16.9177 16.7933C16.7854 16.9261 16.612 16.9926 16.4386 16.9926C16.2652 16.9926 16.0917 16.9261 15.9594 16.7933C15.6909 16.5235 15.6909 16.0864 15.9594 15.8167L22.4886 9.25995C22.9986 8.74781 23.0772 7.92379 22.6296 7.35589C22.3473 6.99774 21.9354 6.81872 21.5237 6.81872C21.1628 6.81872 20.8022 6.95613 20.5285 7.23094L13.9685 13.8186C13.8345 13.9532 13.6587 14.0206 13.483 14.0206C13.3072 14.0206 13.1314 13.9532 12.9974 13.8186C12.7325 13.5525 12.7325 13.1212 12.9974 12.8552L18.1001 7.73093C18.6101 7.21879 18.6887 6.39477 18.241 5.82687C17.9588 5.46872 17.5469 5.2897 17.1352 5.2897C16.7743 5.2897 16.4138 5.42711 16.14 5.70193L8.73266 13.1406C8.60109 13.2728 8.4387 13.3321 8.27947 13.3321C7.95312 13.3321 7.63918 13.0829 7.62835 12.6999L7.56262 10.3948C7.56262 9.62527 6.93569 8.99559 6.16941 8.99559C5.40312 8.99559 4.77609 9.62527 4.77609 10.3948L3.43841 20.1625C3.4382 20.1636 3.43778 20.1646 3.43704 20.1653L2.14553 21.6731C1.9437 21.9086 1.95706 22.2606 2.17613 22.48L9.50346 29.8267C9.61799 29.9414 9.76902 30 9.92089 30C10.0471 30 10.1738 29.9596 10.2805 29.8773L11.9269 28.6076C11.9975 28.5532 12.079 28.5165 12.1658 28.4974C15.0221 27.8722 18.2738 25.3648 21.3843 22.241L25.0266 18.5835Z" fill="white"/>
</svg>
