<?xml version="1.0" encoding="utf-8"?>
<!-- Generator: Adobe Illustrator 25.2.1, SVG Export Plug-In . SVG Version: 6.00 Build 0)  -->
<svg version="1.1" id="Layer_1" xmlns="http://www.w3.org/2000/svg" xmlns:xlink="http://www.w3.org/1999/xlink" x="0px" y="0px"
	 viewBox="0 0 24 24" style="enable-background:new 0 0 24 24;" xml:space="preserve">
<style type="text/css">
	.st0{fill:none;}
	.st1{fill:#FFFFFF;}
</style>
<path class="st0" d="M24,0v24H0V0"/>
<path class="st1" d="M12,22c5,0,9-4,9-9C16,13,12,17,12,22z M12,1 M18.4,10.2 M15.9,12.8 M12,15 M3,13c0,5,4,9,9,9C12,17,8,13,3,13z
	"/>
<path class="st1" d="M16.2,9.6c-0.2-0.1-0.4-0.2-0.5-0.3c0.2-0.1,0.4-0.2,0.5-0.3c1.2-0.7,1.9-2,1.9-3.3c-1.1-0.6-2.6-0.7-3.8,0
	C14.2,6,14,6.1,13.9,6.2c0-0.2,0.1-0.4,0.1-0.6c0-1.4-0.8-2.6-1.9-3.3c-1.1,0.7-1.9,1.9-1.9,3.3c0,0.2,0,0.4,0.1,0.6
	C10,6.1,9.9,6,9.7,5.9c-1.2-0.7-2.6-0.6-3.8,0c0,1.3,0.7,2.6,1.9,3.3C8,9.2,8.2,9.3,8.4,9.4C8.2,9.4,8,9.5,7.8,9.6
	c-1.2,0.7-1.9,2-1.9,3.3c1.1,0.6,2.6,0.7,3.8,0c0.2-0.1,0.3-0.2,0.5-0.3c0,0.2-0.1,0.4-0.1,0.6c0,1.4,0.8,2.6,1.9,3.3
	c1.1-0.7,1.9-1.9,1.9-3.3c0-0.2,0-0.4-0.1-0.6c0.2,0.1,0.3,0.2,0.5,0.3c1.2,0.7,2.6,0.6,3.8,0C18.1,11.6,17.4,10.3,16.2,9.6z
	 M12,11.9c-1.4,0-2.5-1.1-2.5-2.5s1.1-2.5,2.5-2.5s2.5,1.1,2.5,2.5S13.4,11.9,12,11.9z"/>
</svg>
