<?xml version="1.0" encoding="utf-8"?>
<!-- Generator: Adobe Illustrator 25.2.1, SVG Export Plug-In . SVG Version: 6.00 Build 0)  -->
<svg version="1.1" id="Layer_1" xmlns="http://www.w3.org/2000/svg" xmlns:xlink="http://www.w3.org/1999/xlink" x="0px" y="0px"
	 viewBox="0 0 24 24" style="enable-background:new 0 0 24 24;" xml:space="preserve">
<style type="text/css">
	.st0{fill:none;}
	.st1{fill:#FFFFFF;}
</style>
<path class="st0" d="M24,0v24H0V0"/>
<path class="st1" d="M12,22c5,0,9-4,9-9C16,13,12,17,12,22z M12,1 M18.4,10.2 M15.9,12.8 M12,15 M3,13c0,5,4,9,9,9C12,17,8,13,3,13z
	"/>
<path class="st1" d="M14.7,12.5c-0.1-0.1-0.2-0.1-0.3-0.2c0.1,0,0.2-0.1,0.3-0.2c0.8-0.4,1.2-1.2,1.2-2c-0.7-0.4-1.6-0.4-2.3,0
	c-0.1,0.1-0.2,0.1-0.3,0.2c0-0.1,0-0.2,0-0.4c0-0.9-0.5-1.6-1.2-2c-0.7,0.4-1.2,1.2-1.2,2c0,0.1,0,0.3,0,0.4
	c-0.1-0.1-0.2-0.2-0.3-0.2c-0.8-0.4-1.6-0.4-2.3,0c0,0.8,0.4,1.6,1.2,2c0.1,0.1,0.2,0.1,0.3,0.2c-0.1,0-0.2,0.1-0.3,0.2
	c-0.8,0.4-1.2,1.2-1.2,2c0.7,0.4,1.6,0.4,2.3,0c0.1-0.1,0.2-0.1,0.3-0.2c0,0.1,0,0.3,0,0.4c0,0.9,0.5,1.6,1.2,2
	c0.7-0.4,1.2-1.2,1.2-2c0-0.1,0-0.3,0-0.4c0.1,0.1,0.2,0.1,0.3,0.2c0.8,0.4,1.6,0.4,2.3,0C15.9,13.7,15.4,12.9,14.7,12.5z
	 M12.1,13.9c-0.9,0-1.6-0.7-1.6-1.6c0-0.9,0.7-1.6,1.6-1.6c0.9,0,1.6,0.7,1.6,1.6S12.9,13.9,12.1,13.9z"/>
<path class="st1" d="M9.6,7.2C9.5,7.1,9.4,7.1,9.3,7c0.1,0,0.2-0.1,0.3-0.2c0.8-0.4,1.2-1.2,1.2-2c-0.7-0.4-1.6-0.4-2.3,0
	C8.4,4.9,8.3,5,8.2,5c0-0.1,0-0.2,0-0.4c0-0.9-0.5-1.6-1.2-2c-0.7,0.4-1.2,1.2-1.2,2c0,0.1,0,0.3,0,0.4C5.8,5,5.7,4.9,5.6,4.8
	c-0.8-0.4-1.6-0.4-2.3,0c0,0.8,0.4,1.6,1.2,2C4.5,6.9,4.6,7,4.7,7c-0.1,0-0.2,0.1-0.3,0.2c-0.8,0.4-1.2,1.2-1.2,2
	c0.7,0.4,1.6,0.4,2.3,0C5.7,9.2,5.8,9.1,5.9,9c0,0.1,0,0.3,0,0.4c0,0.9,0.5,1.6,1.2,2c0.7-0.4,1.2-1.2,1.2-2c0-0.1,0-0.3,0-0.4
	c0.1,0.1,0.2,0.1,0.3,0.2c0.8,0.4,1.6,0.4,2.3,0C10.8,8.4,10.4,7.6,9.6,7.2z M7,8.6C6.2,8.6,5.5,7.9,5.5,7c0-0.9,0.7-1.6,1.6-1.6
	c0.9,0,1.6,0.7,1.6,1.6C8.6,7.9,7.9,8.6,7,8.6z"/>
<path class="st1" d="M19.8,7.2c-0.1-0.1-0.2-0.1-0.3-0.2c0.1,0,0.2-0.1,0.3-0.2c0.8-0.4,1.2-1.2,1.2-2c-0.7-0.4-1.6-0.4-2.3,0
	C18.5,5,18.4,5,18.3,5.1c0-0.1,0-0.2,0-0.4c0-0.9-0.5-1.6-1.2-2c-0.7,0.4-1.2,1.2-1.2,2c0,0.1,0,0.3,0,0.4C15.9,5,15.8,5,15.7,4.9
	c-0.8-0.4-1.6-0.4-2.3,0c0,0.8,0.4,1.6,1.2,2C14.7,7,14.8,7,14.9,7.1c-0.1,0-0.2,0.1-0.3,0.2c-0.8,0.4-1.2,1.2-1.2,2
	c0.7,0.4,1.6,0.4,2.3,0c0.1-0.1,0.2-0.1,0.3-0.2c0,0.1,0,0.3,0,0.4c0,0.9,0.5,1.6,1.2,2c0.7-0.4,1.2-1.2,1.2-2c0-0.1,0-0.3,0-0.4
	c0.1,0.1,0.2,0.1,0.3,0.2c0.8,0.4,1.6,0.4,2.3,0C21,8.5,20.6,7.7,19.8,7.2z M17.2,8.7c-0.9,0-1.6-0.7-1.6-1.6s0.7-1.6,1.6-1.6
	c0.9,0,1.6,0.7,1.6,1.6C18.7,7.9,18,8.7,17.2,8.7z"/>
</svg>
