<?xml version="1.0" encoding="utf-8"?>
<!-- Generator: Adobe Illustrator 25.2.1, SVG Export Plug-In . SVG Version: 6.00 Build 0)  -->
<svg version="1.1" id="Layer_1" xmlns="http://www.w3.org/2000/svg" xmlns:xlink="http://www.w3.org/1999/xlink" x="0px" y="0px"
	 viewBox="0 0 24 24" style="enable-background:new 0 0 24 24;" xml:space="preserve">
<style type="text/css">
	.st0{fill:none;}
	.st1{fill:#FFFFFF;}
</style>
<path class="st0" d="M24,0v24H0V0"/>
<path class="st1" d="M14.7,17.7c-0.1-0.1-0.2-0.1-0.3-0.2c0.1,0,0.2-0.1,0.3-0.2c0.8-0.4,1.2-1.2,1.2-2c-0.7-0.4-1.6-0.4-2.3,0
	c-0.1,0.1-0.2,0.1-0.3,0.2c0-0.1,0-0.2,0-0.4c0-0.9-0.5-1.6-1.2-2c-0.7,0.4-1.2,1.2-1.2,2c0,0.1,0,0.3,0,0.4
	c-0.1-0.1-0.2-0.2-0.3-0.2c-0.8-0.4-1.6-0.4-2.3,0c0,0.8,0.4,1.6,1.2,2c0.1,0.1,0.2,0.1,0.3,0.2c-0.1,0-0.2,0.1-0.3,0.2
	c-0.8,0.4-1.2,1.2-1.2,2c0.7,0.4,1.6,0.4,2.3,0c0.1-0.1,0.2-0.1,0.3-0.2c0,0.1,0,0.3,0,0.4c0,0.9,0.5,1.6,1.2,2
	c0.7-0.4,1.2-1.2,1.2-2c0-0.1,0-0.3,0-0.4c0.1,0.1,0.2,0.1,0.3,0.2c0.8,0.4,1.6,0.4,2.3,0C15.9,18.9,15.4,18.1,14.7,17.7z
	 M12.1,19.1c-0.9,0-1.6-0.7-1.6-1.6c0-0.9,0.7-1.6,1.6-1.6c0.9,0,1.6,0.7,1.6,1.6S12.9,19.1,12.1,19.1z"/>
<path class="st1" d="M9.1,12.3c-0.1-0.1-0.2-0.1-0.3-0.2C8.9,12.1,9,12,9.1,12c0.8-0.4,1.2-1.2,1.2-2c-0.7-0.4-1.6-0.4-2.3,0
	c-0.1,0.1-0.2,0.1-0.3,0.2c0-0.1,0-0.2,0-0.4c0-0.9-0.5-1.6-1.2-2c-0.7,0.4-1.2,1.2-1.2,2c0,0.1,0,0.3,0,0.4C5.2,10.1,5.1,10,5,9.9
	c-0.8-0.4-1.6-0.4-2.3,0c0,0.8,0.4,1.6,1.2,2C4,12,4.1,12.1,4.2,12.1c-0.1,0-0.2,0.1-0.3,0.2c-0.8,0.4-1.2,1.2-1.2,2
	c0.7,0.4,1.6,0.4,2.3,0c0.1-0.1,0.2-0.1,0.3-0.2c0,0.1,0,0.3,0,0.4c0,0.9,0.5,1.6,1.2,2c0.7-0.4,1.2-1.2,1.2-2c0-0.1,0-0.3,0-0.4
	c0.1,0.1,0.2,0.1,0.3,0.2c0.8,0.4,1.6,0.4,2.3,0C10.3,13.5,9.9,12.7,9.1,12.3z M6.5,13.7c-0.9,0-1.6-0.7-1.6-1.6
	c0-0.9,0.7-1.6,1.6-1.6s1.6,0.7,1.6,1.6C8.1,13,7.4,13.7,6.5,13.7z"/>
<path class="st1" d="M20,12.3c-0.1-0.1-0.2-0.1-0.3-0.2c0.1,0,0.2-0.1,0.3-0.2c0.8-0.4,1.2-1.2,1.2-2c-0.7-0.4-1.6-0.4-2.3,0
	c-0.1,0.1-0.2,0.1-0.3,0.2c0-0.1,0-0.2,0-0.4c0-0.9-0.5-1.6-1.2-2c-0.7,0.4-1.2,1.2-1.2,2c0,0.1,0,0.3,0,0.4
	c-0.1-0.1-0.2-0.2-0.3-0.2c-0.8-0.4-1.6-0.4-2.3,0c0,0.8,0.4,1.6,1.2,2c0.1,0.1,0.2,0.1,0.3,0.2c-0.1,0-0.2,0.1-0.3,0.2
	c-0.8,0.4-1.2,1.2-1.2,2c0.7,0.4,1.6,0.4,2.3,0c0.1-0.1,0.2-0.1,0.3-0.2c0,0.1,0,0.3,0,0.4c0,0.9,0.5,1.6,1.2,2
	c0.7-0.4,1.2-1.2,1.2-2c0-0.1,0-0.3,0-0.4c0.1,0.1,0.2,0.1,0.3,0.2c0.8,0.4,1.6,0.4,2.3,0C21.2,13.5,20.8,12.7,20,12.3z M17.4,13.7
	c-0.9,0-1.6-0.7-1.6-1.6c0-0.9,0.7-1.6,1.6-1.6c0.9,0,1.6,0.7,1.6,1.6C19,13,18.3,13.7,17.4,13.7z"/>
<path class="st1" d="M14.7,6.4c-0.1-0.1-0.2-0.1-0.3-0.2c0.1,0,0.2-0.1,0.3-0.2c0.8-0.4,1.2-1.2,1.2-2c-0.7-0.4-1.6-0.4-2.3,0
	c-0.1,0.1-0.2,0.1-0.3,0.2c0-0.1,0-0.2,0-0.4c0-0.9-0.5-1.6-1.2-2c-0.7,0.4-1.2,1.2-1.2,2c0,0.1,0,0.3,0,0.4
	c-0.1-0.1-0.2-0.2-0.3-0.2C9.9,3.7,9,3.7,8.3,4.1c0,0.8,0.4,1.6,1.2,2c0.1,0.1,0.2,0.1,0.3,0.2c-0.1,0-0.2,0.1-0.3,0.2
	c-0.8,0.4-1.2,1.2-1.2,2c0.7,0.4,1.6,0.4,2.3,0c0.1-0.1,0.2-0.1,0.3-0.2c0,0.1,0,0.3,0,0.4c0,0.9,0.5,1.6,1.2,2
	c0.7-0.4,1.2-1.2,1.2-2c0-0.1,0-0.3,0-0.4c0.1,0.1,0.2,0.1,0.3,0.2c0.8,0.4,1.6,0.4,2.3,0C15.9,7.6,15.4,6.9,14.7,6.4z M12.1,7.8
	c-0.9,0-1.6-0.7-1.6-1.6c0-0.9,0.7-1.6,1.6-1.6s1.6,0.7,1.6,1.6C13.6,7.1,12.9,7.8,12.1,7.8z"/>
</svg>
