<?xml version="1.0" encoding="utf-8"?>
<!-- Generator: Adobe Illustrator 25.2.1, SVG Export Plug-In . SVG Version: 6.00 Build 0)  -->
<svg version="1.1" id="Layer_1" xmlns="http://www.w3.org/2000/svg" xmlns:xlink="http://www.w3.org/1999/xlink" x="0px" y="0px"
	 viewBox="0 0 24 24" style="enable-background:new 0 0 24 24;" xml:space="preserve">
<style type="text/css">
	.st0{fill:none;}
	.st1{fill:#FFFFFF;}
</style>
<path class="st0" d="M24,0v24H0V0"/>
<path class="st1" d="M12,22c5,0,9-4,9-9C16,13,12,17,12,22z M12,1 M18.4,10.2 M15.9,12.8 M12,15 M3,13c0,5,4,9,9,9C12,17,8,13,3,13z
	"/>
<path class="st1" d="M12,7.7c-0.2-0.1-0.4-0.2-0.6-0.2c0.2-0.1,0.4-0.2,0.5-0.3c1.2-0.8,1.7-2.1,1.7-3.4c-1.2-0.6-2.6-0.5-3.8,0.3
	C9.7,4.2,9.6,4.3,9.4,4.5c0-0.2,0-0.4,0-0.6C9.4,2.5,8.5,1.3,7.4,0.7c-1.1,0.7-1.8,2-1.7,3.4c0,0.2,0,0.4,0.1,0.6
	C5.6,4.6,5.5,4.5,5.3,4.4C4,3.8,2.6,3.9,1.5,4.7c0.1,1.3,0.8,2.5,2.1,3.1C3.8,7.9,4,7.9,4.2,8C4,8.1,3.8,8.2,3.6,8.3
	C2.5,9.1,1.9,10.4,2,11.7c1.2,0.6,2.6,0.5,3.8-0.3c0.2-0.1,0.3-0.2,0.5-0.4c0,0.2,0,0.4,0,0.6c0.1,1.4,0.9,2.5,2.1,3.1
	c1.1-0.7,1.8-2,1.7-3.4c0-0.2,0-0.4-0.1-0.6c0.2,0.1,0.3,0.2,0.5,0.3c1.3,0.6,2.7,0.5,3.8-0.3C14.1,9.5,13.3,8.3,12,7.7z M8,10.3
	c-1.4,0.1-2.6-1-2.7-2.3s1-2.6,2.3-2.7c1.4-0.1,2.6,1,2.7,2.3S9.4,10.2,8,10.3z"/>
<path class="st1" d="M21.3,8.3C21.2,8.2,21,8.1,20.8,8c0.2-0.1,0.4-0.1,0.6-0.2c1.3-0.6,2-1.8,2.1-3.1c-1.1-0.7-2.5-0.9-3.8-0.3
	c-0.2,0.1-0.4,0.2-0.5,0.3c0-0.2,0.1-0.4,0.1-0.6c0.1-1.4-0.6-2.7-1.7-3.4c-1.2,0.6-2,1.7-2.1,3.1c0,0.2,0,0.4,0,0.6
	c-0.1-0.1-0.3-0.3-0.5-0.4c-1.2-0.8-2.6-0.8-3.8-0.3c-0.1,1.3,0.5,2.6,1.7,3.4c0.2,0.1,0.3,0.2,0.5,0.3c-0.2,0.1-0.4,0.1-0.6,0.2
	c-1.3,0.6-2,1.8-2.1,3.1c1.1,0.7,2.5,0.9,3.8,0.3c0.2-0.1,0.4-0.2,0.5-0.3c0,0.2-0.1,0.4-0.1,0.6c-0.1,1.4,0.6,2.7,1.7,3.4
	c1.2-0.6,2-1.7,2.1-3.1c0-0.2,0-0.4,0-0.6c0.1,0.1,0.3,0.3,0.5,0.4c1.2,0.8,2.6,0.8,3.8,0.3C23.1,10.4,22.5,9.1,21.3,8.3z M17,10.3
	c-1.4-0.1-2.4-1.3-2.3-2.7s1.3-2.4,2.7-2.3c1.4,0.1,2.4,1.3,2.3,2.7C19.6,9.3,18.4,10.3,17,10.3z"/>
</svg>
